<svg xmlns="http://www.w3.org/2000/svg" viewBox="0 0 742.21 358.55"><defs><style>.cls-1{fill:#f4b925;}.cls-2{fill:#161515;}</style></defs><g id="Calque_2" data-name="Calque 2"><g id="Calque_1-2" data-name="Calque 1"><path class="cls-1" d="M206.9,342.85q-19.46-15.71-24-48.29l-1.71-12.7q-4.55-33.08-8.06-53.21t-8.82-34Q159,180.72,152,180.71a9.59,9.59,0,0,0-5.88,2.4V233.2a50.87,50.87,0,0,0,2.18,15.46A22,22,0,0,0,156.91,260v3.36H89.74V260a21.9,21.9,0,0,0,8.64-11.5,51.13,51.13,0,0,0,2.18-15.34V125.35q0-12-5.13-18.34a16.27,16.27,0,0,0-13.28-6.35q-9.68,0-20.11,8.27T44.59,132.3q-7,15.1-7,34.75,0,15.82,3.13,26.49t8.06,15.69q4.93,5,9.87,5c3.28,0,6-1.52,8.25-4.56s3.32-7,3.32-12a18.13,18.13,0,0,0-2-8.27,8.38,8.38,0,0,0-6.55-4.67q0-4.56,4-9a12,12,0,0,1,9.1-4.43q7,0,11,4.67a17.33,17.33,0,0,1,4,11.62q0,16.54-8.82,25.05t-22.67,8.51q-13.48,0-27-8a63.45,63.45,0,0,1-22.39-23Q0,175.21,0,155.55a59.56,59.56,0,0,1,30.45-51.77q14.9-8.62,35.39-8.63h71.94a11.12,11.12,0,0,1,10.54,14.61l0,.13a50.87,50.87,0,0,0-2.18,15.46v50.81L167,147.88a233,233,0,0,0,28.27-48.54Q205.48,75,205.48,58q0-11.26-4.93-17.62t-15-6.35a25.54,25.54,0,0,0-4,.24q2.66-16.05,12.81-25.16T216.86,0a27,27,0,0,1,20.3,8.75q8.35,8.75,8.35,25,0,20.39-18.5,51.41T168.1,156a27.17,27.17,0,0,1,12.14-3.12q14,0,22.11,14.62t11.86,35.71q3.78,21.09,7.4,55.61,3.4,31.39,6.45,49.49t9.2,30.32q6.17,12.22,16.79,12.22a21.63,21.63,0,0,0,13.85-4.67,29.48,29.48,0,0,0,8.92-12,39.33,39.33,0,0,0,3-15.22,29.79,29.79,0,0,0-4-15.69,15.09,15.09,0,0,0-11.58-7.55,19.75,19.75,0,0,1,6.08-11.15,15.63,15.63,0,0,1,11-4.67,26.1,26.1,0,0,1,15.18,4.43,27.85,27.85,0,0,1,9.77,11.87,38.92,38.92,0,0,1,3.32,16.05,44.65,44.65,0,0,1-5.88,22q-5.88,10.55-17.93,17.38t-29.5,6.83Q226.35,358.55,206.9,342.85Z"/><path class="cls-2" d="M293.46,251.36q-6.6,4.95-10.65,7.9a34.3,34.3,0,0,1-5.7,3.64,25,25,0,0,1-10.58,2.34,20,20,0,0,1-8-1.58,19.12,19.12,0,0,1-6.33-4.4,20.06,20.06,0,0,1-4.19-6.8,25,25,0,0,1-1.51-8.93,22.76,22.76,0,0,1,2.27-10.31,25.05,25.05,0,0,1,7-8.32A51.84,51.84,0,0,1,268,218q11.82-5.49,25.42-10.44v-3.3a45.73,45.73,0,0,0-1-10.58,17.21,17.21,0,0,0-3.09-6.81,11.11,11.11,0,0,0-4.95-3.57,19.44,19.44,0,0,0-6.59-1q-5.93,0-9.35,3.16a9.53,9.53,0,0,0-3.44,7.15l.28,5.36c0,2.84-.71,5-2.13,6.53a7.45,7.45,0,0,1-5.7,2.26,7.29,7.29,0,0,1-5.64-2.4,9.28,9.28,0,0,1-2.2-6.53,15.85,15.85,0,0,1,2.06-7.63,21.64,21.64,0,0,1,6.05-6.8,32.84,32.84,0,0,1,9.69-4.88,48.33,48.33,0,0,1,29.68,1,18.11,18.11,0,0,1,9.83,9.9q1.65,4,1.65,16.21v28.59q0,7.29.21,11.2a25.88,25.88,0,0,0,.75,5.7q.56,1.8,1.38,2.13a6,6,0,0,0,3.84.07,7.18,7.18,0,0,0,1.93-1.1,24.9,24.9,0,0,0,2.54-2.26c1-1,2.22-2.22,3.78-3.78v5.22q-10.31,13.74-19.65,13.74a9.12,9.12,0,0,1-7.15-3.09Q293.47,258.92,293.46,251.36Zm0-6.05V213.15q-9.61,3.85-22,9.9a17.3,17.3,0,0,0-7.07,6.59,18.17,18.17,0,0,0-2.55,9.49,16.67,16.67,0,0,0,1.1,6.11,16.46,16.46,0,0,0,2.89,4.88,13,13,0,0,0,4.19,3.23,11.31,11.31,0,0,0,5,1.17Q282.06,254.52,293.46,245.31Z"/><path class="cls-2" d="M348.3,176.6v19q10.72-19,21.86-19a12.65,12.65,0,0,1,4.6.82,11.71,11.71,0,0,1,3.71,2.27,10.67,10.67,0,0,1,2.47,3.3,8.83,8.83,0,0,1,.9,3.91,8.36,8.36,0,0,1-2.41,6,7.67,7.67,0,0,1-5.7,2.47,8.3,8.3,0,0,1-3.51-1,31.19,31.19,0,0,1-3.84-2.2c-1.24-.82-2.39-1.55-3.44-2.2a5.31,5.31,0,0,0-2.4-1q-2.48,0-5.78,4a56.2,56.2,0,0,0-6.46,10.17V243.8a41.84,41.84,0,0,0,.49,6.73,11.88,11.88,0,0,0,2,5.16,9.63,9.63,0,0,0,4.46,3.3,22,22,0,0,0,7.91,1.17v3.29H319.86v-3.29a33.16,33.16,0,0,0,6.66-.55,7.49,7.49,0,0,0,4.06-2.2,9.37,9.37,0,0,0,2.06-4.75,49.21,49.21,0,0,0,.55-8.17V211.78q0-7.42-.21-11.68a55.4,55.4,0,0,0-.48-5.78q-1.38-5.49-6.19-5.49a13.58,13.58,0,0,0-3,.34,29.86,29.86,0,0,0-3.43,1l-.83-3.3,25.43-10.3Z"/><path class="cls-2" d="M428.71,251.36q-6.6,4.95-10.65,7.9a34.68,34.68,0,0,1-5.71,3.64,25,25,0,0,1-10.58,2.34,20.06,20.06,0,0,1-8-1.58,19.08,19.08,0,0,1-6.32-4.4,19.76,19.76,0,0,1-4.19-6.8,25,25,0,0,1-1.51-8.93A22.75,22.75,0,0,1,384,233.22a25.05,25.05,0,0,1,7-8.32,51.84,51.84,0,0,1,12.3-6.94q11.82-5.49,25.43-10.44v-3.3a46.29,46.29,0,0,0-1-10.58,17.07,17.07,0,0,0-3.1-6.81,11.14,11.14,0,0,0-4.94-3.57,19.54,19.54,0,0,0-6.6-1q-5.91,0-9.35,3.16a9.52,9.52,0,0,0-3.43,7.15l.27,5.36c0,2.84-.71,5-2.13,6.53a7.45,7.45,0,0,1-5.7,2.26,7.28,7.28,0,0,1-5.63-2.4,9.28,9.28,0,0,1-2.2-6.53,15.74,15.74,0,0,1,2.06-7.63,21.6,21.6,0,0,1,6-6.8,32.84,32.84,0,0,1,9.69-4.88,48.36,48.36,0,0,1,29.69,1,18.14,18.14,0,0,1,9.83,9.9q1.63,4,1.64,16.21v28.59q0,7.29.21,11.2a25.75,25.75,0,0,0,.76,5.7c.36,1.2.82,1.91,1.37,2.13a5.37,5.37,0,0,0,2.06.35,5.46,5.46,0,0,0,1.79-.28,7,7,0,0,0,1.92-1.1,24.87,24.87,0,0,0,2.55-2.26c1-1,2.22-2.22,3.78-3.78v5.22Q447.94,265.1,438.6,265.1a9.1,9.1,0,0,1-7.14-3.09Q428.7,258.92,428.71,251.36Zm0-6.05V213.15q-9.63,3.85-22,9.9a17.27,17.27,0,0,0-7.08,6.59,18.16,18.16,0,0,0-2.54,9.49,16.81,16.81,0,0,0,4,11,13,13,0,0,0,4.19,3.23,11.37,11.37,0,0,0,5,1.17Q417.29,254.52,428.71,245.31Z"/><path class="cls-2" d="M454.55,179.07h39.72v3.44h-2.61a7.74,7.74,0,0,0-5.43,1.71,6.15,6.15,0,0,0-1.86,4.74,18,18,0,0,0,1.93,7.7L506,243.25l19.65-48.38a22.74,22.74,0,0,0,2.06-7.83,3.54,3.54,0,0,0-2.19-3.64c-1.47-.6-4-.89-7.43-.89v-3.44h27.49v3.44a16.75,16.75,0,0,0-4.74,1,9.47,9.47,0,0,0-3.23,2.13,12.12,12.12,0,0,0-2.34,3.36q-1,2-2.06,4.61l-30,72.42h-3.71l-30.1-71.19a50.74,50.74,0,0,0-2.61-5.49,12.59,12.59,0,0,0-2.88-3.58,12.4,12.4,0,0,0-3.85-2.13,27.88,27.88,0,0,0-5.5-1.16Z"/><path class="cls-2" d="M595.42,251.36q-6.58,4.95-10.65,7.9a34.3,34.3,0,0,1-5.7,3.64,25,25,0,0,1-10.58,2.34,20,20,0,0,1-8-1.58,19,19,0,0,1-6.32-4.4,19.93,19.93,0,0,1-4.2-6.8,25,25,0,0,1-1.51-8.93,22.76,22.76,0,0,1,2.27-10.31,25.05,25.05,0,0,1,7-8.32A51.84,51.84,0,0,1,570,218q11.82-5.49,25.42-10.44v-3.3a45.73,45.73,0,0,0-1-10.58,16.93,16.93,0,0,0-3.09-6.81,11.11,11.11,0,0,0-4.95-3.57,19.44,19.44,0,0,0-6.59-1q-5.91,0-9.35,3.16a9.52,9.52,0,0,0-3.43,7.15l.27,5.36c0,2.84-.71,5-2.13,6.53a7.45,7.45,0,0,1-5.7,2.26,7.32,7.32,0,0,1-5.64-2.4,9.28,9.28,0,0,1-2.2-6.53,15.85,15.85,0,0,1,2.06-7.63,21.64,21.64,0,0,1,6.05-6.8,32.84,32.84,0,0,1,9.69-4.88,48.36,48.36,0,0,1,29.69,1,18.09,18.09,0,0,1,9.82,9.9q1.65,4,1.65,16.21v28.59q0,7.29.21,11.2a26.51,26.51,0,0,0,.75,5.7q.56,1.8,1.38,2.13a5.33,5.33,0,0,0,2.06.35,5.46,5.46,0,0,0,1.79-.28,7,7,0,0,0,1.92-1.1,24.9,24.9,0,0,0,2.54-2.26c1-1,2.22-2.22,3.78-3.78v5.22q-10.31,13.74-19.65,13.74a9.12,9.12,0,0,1-7.15-3.09Q595.43,258.92,595.42,251.36Zm0-6.05V213.15q-9.61,3.85-22,9.9a17.3,17.3,0,0,0-7.07,6.59,18.17,18.17,0,0,0-2.55,9.49,16.75,16.75,0,0,0,4,11,13,13,0,0,0,4.19,3.23,11.34,11.34,0,0,0,5,1.17Q584,254.52,595.42,245.31Z"/><path class="cls-2" d="M650.26,194.46Q665,176.6,678.44,176.6a23.19,23.19,0,0,1,8.66,1.58A16.9,16.9,0,0,1,694,183.4a26.16,26.16,0,0,1,4.6,9.76,59.25,59.25,0,0,1,1.65,15.18v36a47.55,47.55,0,0,0,.62,8.66,9.67,9.67,0,0,0,2.06,4.74,6.57,6.57,0,0,0,3.92,2,38.91,38.91,0,0,0,6.32.42v3.29H671.57v-3.29h1.65a22.58,22.58,0,0,0,6.52-.76,6.34,6.34,0,0,0,3.58-2.54,11.16,11.16,0,0,0,1.51-4.88,70.79,70.79,0,0,0,.34-7.63v-34.5q0-11.67-2.95-16.76T672.12,188q-11.13,0-21.86,12v44.39a80.18,80.18,0,0,0,.35,8.45,8.78,8.78,0,0,0,1.72,4.74,6.6,6.6,0,0,0,4.12,2.13,45,45,0,0,0,7.56.49v3.29H622.23v-3.29H624a16.55,16.55,0,0,0,5.42-.76,6.68,6.68,0,0,0,3.37-2.54,11.63,11.63,0,0,0,1.72-4.88,51,51,0,0,0,.48-7.63v-31.2c0-6-.09-10.72-.27-14a30.15,30.15,0,0,0-1-7.22c-.5-1.51-1.19-2.41-2.06-2.68a10.67,10.67,0,0,0-3.23-.41,12,12,0,0,0-2.81.34,31.83,31.83,0,0,0-3.37,1l-1.38-3.3,25.43-10.3h4Z"/><path class="cls-2" d="M732,245.59a9.89,9.89,0,0,1,7.15,2.95,9.73,9.73,0,0,1,3,7.22,9.93,9.93,0,0,1-3,7.28,9.76,9.76,0,0,1-7.15,3,10.31,10.31,0,0,1-10.3-10.3,9.65,9.65,0,0,1,3-7.29A10.16,10.16,0,0,1,732,245.59Z"/></g></g></svg>